<svg width="697" height="73" viewBox="0 0 697 73" fill="none" xmlns="http://www.w3.org/2000/svg">
<path d="M55.9428 9.25716H64.5143V0.68573H55.9428V9.25716ZM40.3428 9.25716V0.68573H31.7714V9.25716H40.3428ZM40.3428 24.8572V33.4286H48.9143V24.8572H40.3428ZM24.7428 24.8572H16.1714V33.4286H24.7428V24.8572ZM24.7428 9.25716H33.3143V0.68573H24.7428V9.25716ZM9.14284 9.25716V0.68573H0.571411V9.25716H9.14284ZM9.14284 63.8572H0.571411V72.4286H9.14284V63.8572ZM24.7428 63.8572V72.4286H33.3143V63.8572H24.7428ZM24.7428 32.6572V24.0857H16.1714V32.6572H24.7428ZM40.3428 32.6572H48.9143V24.0857H40.3428V32.6572ZM40.3428 63.8572H31.7714V72.4286H40.3428V63.8572ZM55.9428 63.8572V72.4286H64.5143V63.8572H55.9428ZM55.9428 0.68573H40.3428V17.8286H55.9428V0.68573ZM31.7714 9.25716V24.8572H48.9143V9.25716H31.7714ZM40.3428 16.2857H24.7428V33.4286H40.3428V16.2857ZM33.3143 24.8572V9.25716H16.1714V24.8572H33.3143ZM24.7428 0.68573H9.14284V17.8286H24.7428V0.68573ZM0.571411 9.25716V63.8572H17.7143V9.25716H0.571411ZM9.14284 72.4286H24.7428V55.2857H9.14284V72.4286ZM33.3143 63.8572V32.6572H16.1714V63.8572H33.3143ZM24.7428 41.2286H40.3428V24.0857H24.7428V41.2286ZM31.7714 32.6572V63.8572H48.9143V32.6572H31.7714ZM40.3428 72.4286H55.9428V55.2857H40.3428V72.4286ZM64.5143 63.8572V9.25716H47.3714V63.8572H64.5143ZM102.758 32.6572H94.1868V41.2286H102.758V32.6572ZM102.758 24.8572H111.33V16.2857H102.758V24.8572ZM71.5583 24.8572V16.2857H62.9868V24.8572H71.5583ZM71.5583 32.6572H62.9868V41.2286H71.5583V32.6572ZM94.9583 32.6572H103.53V24.0857H94.9583V32.6572ZM94.9583 40.4572V49.0286H103.53V40.4572H94.9583ZM71.5583 40.4572V31.8857H62.9868V40.4572H71.5583ZM71.5583 48.2572V56.8286H80.1297V48.2572H71.5583ZM63.7583 48.2572V39.6857H55.1868V48.2572H63.7583ZM63.7583 56.0572H55.1868V64.6286H63.7583V56.0572ZM71.5583 56.0572H80.1297V47.4857H71.5583V56.0572ZM71.5583 63.8572H62.9868V72.4286H71.5583V63.8572ZM110.558 63.8572V72.4286H119.13V63.8572H110.558ZM110.558 32.6572H119.13V24.0857H110.558V32.6572ZM94.9583 56.0572V64.6286H103.53V56.0572H94.9583ZM79.3583 56.0572H70.7868V64.6286H79.3583V56.0572ZM79.3583 48.2572V39.6857H70.7868V48.2572H79.3583ZM94.9583 48.2572H103.53V39.6857H94.9583V48.2572ZM111.33 32.6572V24.8572H94.1868V32.6572H111.33ZM102.758 16.2857H71.5583V33.4286H102.758V16.2857ZM62.9868 24.8572V32.6572H80.1297V24.8572H62.9868ZM71.5583 41.2286H94.9583V24.0857H71.5583V41.2286ZM86.3868 32.6572V40.4572H103.53V32.6572H86.3868ZM94.9583 31.8857H71.5583V49.0286H94.9583V31.8857ZM62.9868 40.4572V48.2572H80.1297V40.4572H62.9868ZM71.5583 39.6857H63.7583V56.8286H71.5583V39.6857ZM55.1868 48.2572V56.0572H72.3297V48.2572H55.1868ZM63.7583 64.6286H71.5583V47.4857H63.7583V64.6286ZM62.9868 56.0572V63.8572H80.1297V56.0572H62.9868ZM71.5583 72.4286H110.558V55.2857H71.5583V72.4286ZM119.13 63.8572V32.6572H101.987V63.8572H119.13ZM110.558 24.0857H102.758V41.2286H110.558V24.0857ZM94.9583 47.4857H79.3583V64.6286H94.9583V47.4857ZM87.9297 56.0572V48.2572H70.7868V56.0572H87.9297ZM79.3583 56.8286H94.9583V39.6857H79.3583V56.8286ZM86.3868 48.2572V56.0572H103.53V48.2572H86.3868ZM157.374 32.6572H148.802V41.2286H157.374V32.6572ZM157.374 24.8572H165.945V16.2857H157.374V24.8572ZM118.374 24.8572V16.2857H109.802V24.8572H118.374ZM118.374 63.8572H109.802V72.4286H118.374V63.8572ZM133.974 63.8572V72.4286H142.545V63.8572H133.974ZM133.974 40.4572V31.8857H125.402V40.4572H133.974ZM141.774 40.4572V49.0286H150.345V40.4572H141.774ZM141.774 32.6572V24.0857H133.202V32.6572H141.774ZM149.574 32.6572H158.145V24.0857H149.574V32.6572ZM149.574 40.4572H141.002V49.0286H149.574V40.4572ZM165.174 40.4572V49.0286H173.745V40.4572H165.174ZM165.174 32.6572H173.745V24.0857H165.174V32.6572ZM165.945 32.6572V24.8572H148.802V32.6572H165.945ZM157.374 16.2857H118.374V33.4286H157.374V16.2857ZM109.802 24.8572V63.8572H126.945V24.8572H109.802ZM118.374 72.4286H133.974V55.2857H118.374V72.4286ZM142.545 63.8572V40.4572H125.402V63.8572H142.545ZM133.974 49.0286H141.774V31.8857H133.974V49.0286ZM150.345 40.4572V32.6572H133.202V40.4572H150.345ZM141.774 41.2286H149.574V24.0857H141.774V41.2286ZM141.002 32.6572V40.4572H158.145V32.6572H141.002ZM149.574 49.0286H165.174V31.8857H149.574V49.0286ZM173.745 40.4572V32.6572H156.602V40.4572H173.745ZM165.174 24.0857H157.374V41.2286H165.174V24.0857ZM219.788 9.25716H228.36V0.68573H219.788V9.25716ZM204.188 9.25716V0.68573H195.617V9.25716H204.188ZM204.188 24.8572V33.4286H212.76V24.8572H204.188ZM180.788 24.8572V16.2857H172.217V24.8572H180.788ZM180.788 32.6572V41.2286H189.36V32.6572H180.788ZM172.988 32.6572V24.0857H164.417V32.6572H172.988ZM172.988 56.0572H164.417V64.6286H172.988V56.0572ZM180.788 56.0572H189.36V47.4857H180.788V56.0572ZM180.788 63.8572H172.217V72.4286H180.788V63.8572ZM219.788 63.8572V72.4286H228.36V63.8572H219.788ZM204.188 56.0572V64.6286H212.76V56.0572H204.188ZM188.588 56.0572H180.017V64.6286H188.588V56.0572ZM188.588 32.6572V24.0857H180.017V32.6572H188.588ZM196.388 32.6572H204.96V24.0857H196.388V32.6572ZM196.388 40.4572H187.817V49.0286H196.388V40.4572ZM204.188 40.4572H212.76V31.8857H204.188V40.4572ZM219.788 0.68573H204.188V17.8286H219.788V0.68573ZM195.617 9.25716V24.8572H212.76V9.25716H195.617ZM204.188 16.2857H180.788V33.4286H204.188V16.2857ZM172.217 24.8572V32.6572H189.36V24.8572H172.217ZM180.788 24.0857H172.988V41.2286H180.788V24.0857ZM164.417 32.6572V56.0572H181.56V32.6572H164.417ZM172.988 64.6286H180.788V47.4857H172.988V64.6286ZM172.217 56.0572V63.8572H189.36V56.0572H172.217ZM180.788 72.4286H219.788V55.2857H180.788V72.4286ZM228.36 63.8572V9.25716H211.217V63.8572H228.36ZM204.188 47.4857H188.588V64.6286H204.188V47.4857ZM197.16 56.0572V32.6572H180.017V56.0572H197.16ZM188.588 41.2286H196.388V24.0857H188.588V41.2286ZM187.817 32.6572V40.4572H204.96V32.6572H187.817ZM196.388 49.0286H204.188V31.8857H196.388V49.0286ZM195.617 40.4572V56.0572H212.76V40.4572H195.617ZM258.804 40.4572H250.232V49.0286H258.804V40.4572ZM274.404 40.4572V49.0286H282.975V40.4572H274.404ZM274.404 32.6572H282.975V24.0857H274.404V32.6572ZM266.604 32.6572H258.032V41.2286H266.604V32.6572ZM266.604 24.8572H275.175V16.2857H266.604V24.8572ZM235.404 24.8572V16.2857H226.832V24.8572H235.404ZM235.404 32.6572V41.2286H243.975V32.6572H235.404ZM227.604 32.6572V24.0857H219.032V32.6572H227.604ZM227.604 56.0572H219.032V64.6286H227.604V56.0572ZM235.404 56.0572H243.975V47.4857H235.404V56.0572ZM235.404 63.8572H226.832V72.4286H235.404V63.8572ZM266.604 63.8572V72.4286H275.175V63.8572H266.604ZM266.604 56.0572V47.4857H258.032V56.0572H266.604ZM274.404 56.0572V64.6286H282.975V56.0572H274.404ZM274.404 48.2572H282.975V39.6857H274.404V48.2572ZM258.804 48.2572V39.6857H250.232V48.2572H258.804ZM258.804 56.0572V64.6286H267.375V56.0572H258.804ZM243.204 56.0572H234.632V64.6286H243.204V56.0572ZM243.204 32.6572V24.0857H234.632V32.6572H243.204ZM258.804 32.6572H267.375V24.0857H258.804V32.6572ZM258.804 49.0286H274.404V31.8857H258.804V49.0286ZM282.975 40.4572V32.6572H265.832V40.4572H282.975ZM274.404 24.0857H266.604V41.2286H274.404V24.0857ZM275.175 32.6572V24.8572H258.032V32.6572H275.175ZM266.604 16.2857H235.404V33.4286H266.604V16.2857ZM226.832 24.8572V32.6572H243.975V24.8572H226.832ZM235.404 24.0857H227.604V41.2286H235.404V24.0857ZM219.032 32.6572V56.0572H236.175V32.6572H219.032ZM227.604 64.6286H235.404V47.4857H227.604V64.6286ZM226.832 56.0572V63.8572H243.975V56.0572H226.832ZM235.404 72.4286H266.604V55.2857H235.404V72.4286ZM275.175 63.8572V56.0572H258.032V63.8572H275.175ZM266.604 64.6286H274.404V47.4857H266.604V64.6286ZM282.975 56.0572V48.2572H265.832V56.0572H282.975ZM274.404 39.6857H258.804V56.8286H274.404V39.6857ZM250.232 48.2572V56.0572H267.375V48.2572H250.232ZM258.804 47.4857H243.204V64.6286H258.804V47.4857ZM251.775 56.0572V32.6572H234.632V56.0572H251.775ZM243.204 41.2286H258.804V24.0857H243.204V41.2286ZM250.232 32.6572V40.4572H267.375V32.6572H250.232ZM321.219 32.6572H312.648V41.2286H321.219V32.6572ZM321.219 24.8572H329.791V16.2857H321.219V24.8572ZM290.019 24.8572V16.2857H281.448V24.8572H290.019ZM290.019 32.6572V41.2286H298.591V32.6572H290.019ZM282.219 32.6572V24.0857H273.648V32.6572H282.219ZM282.219 56.0572H273.648V64.6286H282.219V56.0572ZM290.019 56.0572H298.591V47.4857H290.019V56.0572ZM290.019 63.8572H281.448V72.4286H290.019V63.8572ZM321.219 63.8572V72.4286H329.791V63.8572H321.219ZM321.219 56.0572V47.4857H312.648V56.0572H321.219ZM329.019 56.0572V64.6286H337.591V56.0572H329.019ZM329.019 32.6572H337.591V24.0857H329.019V32.6572ZM313.419 56.0572V64.6286H321.991V56.0572H313.419ZM297.819 56.0572H289.248V64.6286H297.819V56.0572ZM297.819 32.6572V24.0857H289.248V32.6572H297.819ZM313.419 32.6572H321.991V24.0857H313.419V32.6572ZM329.791 32.6572V24.8572H312.648V32.6572H329.791ZM321.219 16.2857H290.019V33.4286H321.219V16.2857ZM281.448 24.8572V32.6572H298.591V24.8572H281.448ZM290.019 24.0857H282.219V41.2286H290.019V24.0857ZM273.648 32.6572V56.0572H290.791V32.6572H273.648ZM282.219 64.6286H290.019V47.4857H282.219V64.6286ZM281.448 56.0572V63.8572H298.591V56.0572H281.448ZM290.019 72.4286H321.219V55.2857H290.019V72.4286ZM329.791 63.8572V56.0572H312.648V63.8572H329.791ZM321.219 64.6286H329.019V47.4857H321.219V64.6286ZM337.591 56.0572V32.6572H320.448V56.0572H337.591ZM329.019 24.0857H321.219V41.2286H329.019V24.0857ZM313.419 47.4857H297.819V64.6286H313.419V47.4857ZM306.391 56.0572V32.6572H289.248V56.0572H306.391ZM297.819 41.2286H313.419V24.0857H297.819V41.2286ZM304.848 32.6572V56.0572H321.991V32.6572H304.848ZM375.835 32.6572H367.263V41.2286H375.835V32.6572ZM375.835 24.8572H384.406V16.2857H375.835V24.8572ZM336.835 24.8572V16.2857H328.263V24.8572H336.835ZM336.835 63.8572H328.263V72.4286H336.835V63.8572ZM352.435 63.8572V72.4286H361.006V63.8572H352.435ZM352.435 40.4572V31.8857H343.863V40.4572H352.435ZM360.235 40.4572V49.0286H368.806V40.4572H360.235ZM360.235 32.6572V24.0857H351.663V32.6572H360.235ZM368.034 32.6572H376.606V24.0857H368.034V32.6572ZM368.034 40.4572H359.463V49.0286H368.034V40.4572ZM383.634 40.4572V49.0286H392.206V40.4572H383.634ZM383.634 32.6572H392.206V24.0857H383.634V32.6572ZM384.406 32.6572V24.8572H367.263V32.6572H384.406ZM375.835 16.2857H336.835V33.4286H375.835V16.2857ZM328.263 24.8572V63.8572H345.406V24.8572H328.263ZM336.835 72.4286H352.435V55.2857H336.835V72.4286ZM361.006 63.8572V40.4572H343.863V63.8572H361.006ZM352.435 49.0286H360.235V31.8857H352.435V49.0286ZM368.806 40.4572V32.6572H351.663V40.4572H368.806ZM360.235 41.2286H368.034V24.0857H360.235V41.2286ZM359.463 32.6572V40.4572H376.606V32.6572H359.463ZM368.034 49.0286H383.634V31.8857H368.034V49.0286ZM392.206 40.4572V32.6572H375.063V40.4572H392.206ZM383.634 24.0857H375.835V41.2286H383.634V24.0857ZM430.449 32.6572H421.878V41.2286H430.449V32.6572ZM430.449 24.8572H439.02V16.2857H430.449V24.8572ZM399.249 24.8572V16.2857H390.678V24.8572H399.249ZM399.249 32.6572V41.2286H407.821V32.6572H399.249ZM391.449 32.6572V24.0857H382.878V32.6572H391.449ZM391.449 56.0572H382.878V64.6286H391.449V56.0572ZM399.249 56.0572H407.821V47.4857H399.249V56.0572ZM399.249 63.8572H390.678V72.4286H399.249V63.8572ZM438.249 63.8572V72.4286H446.821V63.8572H438.249ZM438.249 56.0572H446.821V47.4857H438.249V56.0572ZM407.049 56.0572H398.478V64.6286H407.049V56.0572ZM407.049 48.2572V39.6857H398.478V48.2572H407.049ZM438.249 48.2572V56.8286H446.821V48.2572H438.249ZM438.249 32.6572H446.821V24.0857H438.249V32.6572ZM422.649 40.4572V49.0286H431.221V40.4572H422.649ZM407.049 40.4572H398.478V49.0286H407.049V40.4572ZM407.049 32.6572V24.0857H398.478V32.6572H407.049ZM422.649 32.6572H431.221V24.0857H422.649V32.6572ZM439.02 32.6572V24.8572H421.878V32.6572H439.02ZM430.449 16.2857H399.249V33.4286H430.449V16.2857ZM390.678 24.8572V32.6572H407.821V24.8572H390.678ZM399.249 24.0857H391.449V41.2286H399.249V24.0857ZM382.878 32.6572V56.0572H400.02V32.6572H382.878ZM391.449 64.6286H399.249V47.4857H391.449V64.6286ZM390.678 56.0572V63.8572H407.821V56.0572H390.678ZM399.249 72.4286H438.249V55.2857H399.249V72.4286ZM446.821 63.8572V56.0572H429.678V63.8572H446.821ZM438.249 47.4857H407.049V64.6286H438.249V47.4857ZM415.62 56.0572V48.2572H398.478V56.0572H415.62ZM407.049 56.8286H438.249V39.6857H407.049V56.8286ZM446.821 48.2572V32.6572H429.678V48.2572H446.821ZM438.249 24.0857H430.449V41.2286H438.249V24.0857ZM422.649 31.8857H407.049V49.0286H422.649V31.8857ZM415.62 40.4572V32.6572H398.478V40.4572H415.62ZM407.049 41.2286H422.649V24.0857H407.049V41.2286ZM414.078 32.6572V40.4572H431.221V32.6572H414.078ZM477.265 24.8572H468.693V33.4286H477.265V24.8572ZM492.864 24.8572V33.4286H501.436V24.8572H492.864ZM492.864 17.0572H501.436V8.48573H492.864V17.0572ZM485.064 17.0572H476.493V25.6286H485.064V17.0572ZM485.064 9.25716H493.636V0.68573H485.064V9.25716ZM453.864 9.25716V0.68573H445.293V9.25716H453.864ZM453.864 17.0572V25.6286H462.436V17.0572H453.864ZM446.065 17.0572V8.48573H437.493V17.0572H446.065ZM446.065 56.0572H437.493V64.6286H446.065V56.0572ZM453.864 56.0572H462.436V47.4857H453.864V56.0572ZM453.864 63.8572H445.293V72.4286H453.864V63.8572ZM485.064 63.8572V72.4286H493.636V63.8572H485.064ZM485.064 56.0572V47.4857H476.493V56.0572H485.064ZM492.864 56.0572V64.6286H501.436V56.0572H492.864ZM492.864 48.2572H501.436V39.6857H492.864V48.2572ZM477.265 48.2572V39.6857H468.693V48.2572H477.265ZM477.265 56.0572V64.6286H485.836V56.0572H477.265ZM461.665 56.0572H453.093V64.6286H461.665V56.0572ZM461.665 17.0572V8.48573H453.093V17.0572H461.665ZM477.265 17.0572H485.836V8.48573H477.265V17.0572ZM477.265 33.4286H492.864V16.2857H477.265V33.4286ZM501.436 24.8572V17.0572H484.293V24.8572H501.436ZM492.864 8.48573H485.064V25.6286H492.864V8.48573ZM493.636 17.0572V9.25716H476.493V17.0572H493.636ZM485.064 0.68573H453.864V17.8286H485.064V0.68573ZM445.293 9.25716V17.0572H462.436V9.25716H445.293ZM453.864 8.48573H446.065V25.6286H453.864V8.48573ZM437.493 17.0572V56.0572H454.636V17.0572H437.493ZM446.065 64.6286H453.864V47.4857H446.065V64.6286ZM445.293 56.0572V63.8572H462.436V56.0572H445.293ZM453.864 72.4286H485.064V55.2857H453.864V72.4286ZM493.636 63.8572V56.0572H476.493V63.8572H493.636ZM485.064 64.6286H492.864V47.4857H485.064V64.6286ZM501.436 56.0572V48.2572H484.293V56.0572H501.436ZM492.864 39.6857H477.265V56.8286H492.864V39.6857ZM468.693 48.2572V56.0572H485.836V48.2572H468.693ZM477.265 47.4857H461.665V64.6286H477.265V47.4857ZM470.236 56.0572V17.0572H453.093V56.0572H470.236ZM461.665 25.6286H477.265V8.48573H461.665V25.6286ZM468.693 17.0572V24.8572H485.836V17.0572H468.693ZM539.68 32.6572H531.109V41.2286H539.68V32.6572ZM539.68 24.8572H548.251V16.2857H539.68V24.8572ZM500.68 24.8572V16.2857H492.109V24.8572H500.68ZM500.68 63.8572H492.109V72.4286H500.68V63.8572ZM516.28 63.8572V72.4286H524.851V63.8572H516.28ZM516.28 40.4572V31.8857H507.708V40.4572H516.28ZM524.08 40.4572V49.0286H532.651V40.4572H524.08ZM524.08 32.6572V24.0857H515.508V32.6572H524.08ZM531.88 32.6572H540.451V24.0857H531.88V32.6572ZM531.88 40.4572H523.308V49.0286H531.88V40.4572ZM547.48 40.4572V49.0286H556.051V40.4572H547.48ZM547.48 32.6572H556.051V24.0857H547.48V32.6572ZM548.251 32.6572V24.8572H531.109V32.6572H548.251ZM539.68 16.2857H500.68V33.4286H539.68V16.2857ZM492.109 24.8572V63.8572H509.251V24.8572H492.109ZM500.68 72.4286H516.28V55.2857H500.68V72.4286ZM524.851 63.8572V40.4572H507.708V63.8572H524.851ZM516.28 49.0286H524.08V31.8857H516.28V49.0286ZM532.651 40.4572V32.6572H515.508V40.4572H532.651ZM524.08 41.2286H531.88V24.0857H524.08V41.2286ZM523.308 32.6572V40.4572H540.451V32.6572H523.308ZM531.88 49.0286H547.48V31.8857H531.88V49.0286ZM556.051 40.4572V32.6572H538.908V40.4572H556.051ZM547.48 24.0857H539.68V41.2286H547.48V24.0857ZM594.295 32.6572H585.724V41.2286H594.295V32.6572ZM594.295 24.8572H602.867V16.2857H594.295V24.8572ZM563.095 24.8572V16.2857H554.524V24.8572H563.095ZM563.095 32.6572H554.524V41.2286H563.095V32.6572ZM586.495 32.6572H595.067V24.0857H586.495V32.6572ZM586.495 40.4572V49.0286H595.067V40.4572H586.495ZM563.095 40.4572V31.8857H554.524V40.4572H563.095ZM563.095 48.2572V56.8286H571.667V48.2572H563.095ZM555.295 48.2572V39.6857H546.724V48.2572H555.295ZM555.295 56.0572H546.724V64.6286H555.295V56.0572ZM563.095 56.0572H571.667V47.4857H563.095V56.0572ZM563.095 63.8572H554.524V72.4286H563.095V63.8572ZM602.095 63.8572V72.4286H610.667V63.8572H602.095ZM602.095 32.6572H610.667V24.0857H602.095V32.6572ZM586.495 56.0572V64.6286H595.067V56.0572H586.495ZM570.895 56.0572H562.324V64.6286H570.895V56.0572ZM570.895 48.2572V39.6857H562.324V48.2572H570.895ZM586.495 48.2572H595.067V39.6857H586.495V48.2572ZM602.867 32.6572V24.8572H585.724V32.6572H602.867ZM594.295 16.2857H563.095V33.4286H594.295V16.2857ZM554.524 24.8572V32.6572H571.667V24.8572H554.524ZM563.095 41.2286H586.495V24.0857H563.095V41.2286ZM577.924 32.6572V40.4572H595.067V32.6572H577.924ZM586.495 31.8857H563.095V49.0286H586.495V31.8857ZM554.524 40.4572V48.2572H571.667V40.4572H554.524ZM563.095 39.6857H555.295V56.8286H563.095V39.6857ZM546.724 48.2572V56.0572H563.867V48.2572H546.724ZM555.295 64.6286H563.095V47.4857H555.295V64.6286ZM554.524 56.0572V63.8572H571.667V56.0572H554.524ZM563.095 72.4286H602.095V55.2857H563.095V72.4286ZM610.667 63.8572V32.6572H593.524V63.8572H610.667ZM602.095 24.0857H594.295V41.2286H602.095V24.0857ZM586.495 47.4857H570.895V64.6286H586.495V47.4857ZM579.467 56.0572V48.2572H562.324V56.0572H579.467ZM570.895 56.8286H586.495V39.6857H570.895V56.8286ZM577.924 48.2572V56.0572H595.067V48.2572H577.924ZM633.31 17.0572V8.48573H624.738V17.0572H633.31ZM648.911 17.0572V25.6286H657.482V17.0572H648.911ZM648.911 9.25716H657.482V0.68573H648.911V9.25716ZM625.511 9.25716V0.68573H616.939V9.25716H625.511ZM625.511 17.0572V25.6286H634.082V17.0572H625.511ZM617.71 17.0572V8.48573H609.138V17.0572H617.71ZM617.71 24.8572V33.4286H626.281V24.8572H617.71ZM609.911 24.8572V16.2857H601.339V24.8572H609.911ZM609.911 32.6572H601.339V41.2286H609.911V32.6572ZM617.71 32.6572H626.281V24.0857H617.71V32.6572ZM617.71 63.8572H609.138V72.4286H617.71V63.8572ZM633.31 63.8572V72.4286H641.881V63.8572H633.31ZM633.31 32.6572V24.0857H624.738V32.6572H633.31ZM648.911 32.6572V41.2286H657.482V32.6572H648.911ZM648.911 24.8572H657.482V16.2857H648.911V24.8572ZM633.31 24.8572H624.738V33.4286H633.31V24.8572ZM633.31 25.6286H648.911V8.48573H633.31V25.6286ZM657.482 17.0572V9.25716H640.339V17.0572H657.482ZM648.911 0.68573H625.511V17.8286H648.911V0.68573ZM616.939 9.25716V17.0572H634.082V9.25716H616.939ZM625.511 8.48573H617.71V25.6286H625.511V8.48573ZM609.138 17.0572V24.8572H626.281V17.0572H609.138ZM617.71 16.2857H609.911V33.4286H617.71V16.2857ZM601.339 24.8572V32.6572H618.482V24.8572H601.339ZM609.911 41.2286H617.71V24.0857H609.911V41.2286ZM609.138 32.6572V63.8572H626.281V32.6572H609.138ZM617.71 72.4286H633.31V55.2857H617.71V72.4286ZM641.881 63.8572V32.6572H624.738V63.8572H641.881ZM633.31 41.2286H648.911V24.0857H633.31V41.2286ZM657.482 32.6572V24.8572H640.339V32.6572H657.482ZM648.911 16.2857H633.31V33.4286H648.911V16.2857ZM641.881 24.8572V17.0572H624.738V24.8572H641.881ZM680.08 56.0572H671.508V64.6286H680.08V56.0572ZM680.08 32.6572V24.0857H671.508V32.6572H680.08ZM687.88 32.6572V41.2286H696.451V32.6572H687.88ZM687.88 24.8572H696.451V16.2857H687.88V24.8572ZM680.08 24.8572H671.508V33.4286H680.08V24.8572ZM680.08 9.25716H688.651V0.68573H680.08V9.25716ZM664.48 9.25716V0.68573H655.908V9.25716H664.48ZM664.48 24.8572V33.4286H673.051V24.8572H664.48ZM656.68 24.8572V16.2857H648.108V24.8572H656.68ZM656.68 32.6572H648.108V41.2286H656.68V32.6572ZM664.48 32.6572H673.051V24.0857H664.48V32.6572ZM664.48 56.0572H655.908V64.6286H664.48V56.0572ZM672.28 56.0572H680.851V47.4857H672.28V56.0572ZM672.28 63.8572H663.708V72.4286H672.28V63.8572ZM687.88 63.8572V72.4286H696.451V63.8572H687.88ZM687.88 56.0572H696.451V47.4857H687.88V56.0572ZM688.651 56.0572V32.6572H671.508V56.0572H688.651ZM680.08 41.2286H687.88V24.0857H680.08V41.2286ZM696.451 32.6572V24.8572H679.308V32.6572H696.451ZM687.88 16.2857H680.08V33.4286H687.88V16.2857ZM688.651 24.8572V9.25716H671.508V24.8572H688.651ZM680.08 0.68573H664.48V17.8286H680.08V0.68573ZM655.908 9.25716V24.8572H673.051V9.25716H655.908ZM664.48 16.2857H656.68V33.4286H664.48V16.2857ZM648.108 24.8572V32.6572H665.251V24.8572H648.108ZM656.68 41.2286H664.48V24.0857H656.68V41.2286ZM655.908 32.6572V56.0572H673.051V32.6572H655.908ZM664.48 64.6286H672.28V47.4857H664.48V64.6286ZM663.708 56.0572V63.8572H680.851V56.0572H663.708ZM672.28 72.4286H687.88V55.2857H672.28V72.4286ZM696.451 63.8572V56.0572H679.308V63.8572H696.451ZM687.88 47.4857H680.08V64.6286H687.88V47.4857Z" fill="url(#paint0_linear)"/>
<path d="M55.9428 9.25716H64.5143V0.68573H55.9428V9.25716ZM40.3428 9.25716V0.68573H31.7714V9.25716H40.3428ZM40.3428 24.8572V33.4286H48.9143V24.8572H40.3428ZM24.7428 24.8572H16.1714V33.4286H24.7428V24.8572ZM24.7428 9.25716H33.3143V0.68573H24.7428V9.25716ZM9.14284 9.25716V0.68573H0.571411V9.25716H9.14284ZM9.14284 63.8572H0.571411V72.4286H9.14284V63.8572ZM24.7428 63.8572V72.4286H33.3143V63.8572H24.7428ZM24.7428 32.6572V24.0857H16.1714V32.6572H24.7428ZM40.3428 32.6572H48.9143V24.0857H40.3428V32.6572ZM40.3428 63.8572H31.7714V72.4286H40.3428V63.8572ZM55.9428 63.8572V72.4286H64.5143V63.8572H55.9428ZM55.9428 0.68573H40.3428V17.8286H55.9428V0.68573ZM31.7714 9.25716V24.8572H48.9143V9.25716H31.7714ZM40.3428 16.2857H24.7428V33.4286H40.3428V16.2857ZM33.3143 24.8572V9.25716H16.1714V24.8572H33.3143ZM24.7428 0.68573H9.14284V17.8286H24.7428V0.68573ZM0.571411 9.25716V63.8572H17.7143V9.25716H0.571411ZM9.14284 72.4286H24.7428V55.2857H9.14284V72.4286ZM33.3143 63.8572V32.6572H16.1714V63.8572H33.3143ZM24.7428 41.2286H40.3428V24.0857H24.7428V41.2286ZM31.7714 32.6572V63.8572H48.9143V32.6572H31.7714ZM40.3428 72.4286H55.9428V55.2857H40.3428V72.4286ZM64.5143 63.8572V9.25716H47.3714V63.8572H64.5143ZM102.758 32.6572H94.1868V41.2286H102.758V32.6572ZM102.758 24.8572H111.33V16.2857H102.758V24.8572ZM71.5583 24.8572V16.2857H62.9868V24.8572H71.5583ZM71.5583 32.6572H62.9868V41.2286H71.5583V32.6572ZM94.9583 32.6572H103.53V24.0857H94.9583V32.6572ZM94.9583 40.4572V49.0286H103.53V40.4572H94.9583ZM71.5583 40.4572V31.8857H62.9868V40.4572H71.5583ZM71.5583 48.2572V56.8286H80.1297V48.2572H71.5583ZM63.7583 48.2572V39.6857H55.1868V48.2572H63.7583ZM63.7583 56.0572H55.1868V64.6286H63.7583V56.0572ZM71.5583 56.0572H80.1297V47.4857H71.5583V56.0572ZM71.5583 63.8572H62.9868V72.4286H71.5583V63.8572ZM110.558 63.8572V72.4286H119.13V63.8572H110.558ZM110.558 32.6572H119.13V24.0857H110.558V32.6572ZM94.9583 56.0572V64.6286H103.53V56.0572H94.9583ZM79.3583 56.0572H70.7868V64.6286H79.3583V56.0572ZM79.3583 48.2572V39.6857H70.7868V48.2572H79.3583ZM94.9583 48.2572H103.53V39.6857H94.9583V48.2572ZM111.33 32.6572V24.8572H94.1868V32.6572H111.33ZM102.758 16.2857H71.5583V33.4286H102.758V16.2857ZM62.9868 24.8572V32.6572H80.1297V24.8572H62.9868ZM71.5583 41.2286H94.9583V24.0857H71.5583V41.2286ZM86.3868 32.6572V40.4572H103.53V32.6572H86.3868ZM94.9583 31.8857H71.5583V49.0286H94.9583V31.8857ZM62.9868 40.4572V48.2572H80.1297V40.4572H62.9868ZM71.5583 39.6857H63.7583V56.8286H71.5583V39.6857ZM55.1868 48.2572V56.0572H72.3297V48.2572H55.1868ZM63.7583 64.6286H71.5583V47.4857H63.7583V64.6286ZM62.9868 56.0572V63.8572H80.1297V56.0572H62.9868ZM71.5583 72.4286H110.558V55.2857H71.5583V72.4286ZM119.13 63.8572V32.6572H101.987V63.8572H119.13ZM110.558 24.0857H102.758V41.2286H110.558V24.0857ZM94.9583 47.4857H79.3583V64.6286H94.9583V47.4857ZM87.9297 56.0572V48.2572H70.7868V56.0572H87.9297ZM79.3583 56.8286H94.9583V39.6857H79.3583V56.8286ZM86.3868 48.2572V56.0572H103.53V48.2572H86.3868ZM157.374 32.6572H148.802V41.2286H157.374V32.6572ZM157.374 24.8572H165.945V16.2857H157.374V24.8572ZM118.374 24.8572V16.2857H109.802V24.8572H118.374ZM118.374 63.8572H109.802V72.4286H118.374V63.8572ZM133.974 63.8572V72.4286H142.545V63.8572H133.974ZM133.974 40.4572V31.8857H125.402V40.4572H133.974ZM141.774 40.4572V49.0286H150.345V40.4572H141.774ZM141.774 32.6572V24.0857H133.202V32.6572H141.774ZM149.574 32.6572H158.145V24.0857H149.574V32.6572ZM149.574 40.4572H141.002V49.0286H149.574V40.4572ZM165.174 40.4572V49.0286H173.745V40.4572H165.174ZM165.174 32.6572H173.745V24.0857H165.174V32.6572ZM165.945 32.6572V24.8572H148.802V32.6572H165.945ZM157.374 16.2857H118.374V33.4286H157.374V16.2857ZM109.802 24.8572V63.8572H126.945V24.8572H109.802ZM118.374 72.4286H133.974V55.2857H118.374V72.4286ZM142.545 63.8572V40.4572H125.402V63.8572H142.545ZM133.974 49.0286H141.774V31.8857H133.974V49.0286ZM150.345 40.4572V32.6572H133.202V40.4572H150.345ZM141.774 41.2286H149.574V24.0857H141.774V41.2286ZM141.002 32.6572V40.4572H158.145V32.6572H141.002ZM149.574 49.0286H165.174V31.8857H149.574V49.0286ZM173.745 40.4572V32.6572H156.602V40.4572H173.745ZM165.174 24.0857H157.374V41.2286H165.174V24.0857ZM219.788 9.25716H228.36V0.68573H219.788V9.25716ZM204.188 9.25716V0.68573H195.617V9.25716H204.188ZM204.188 24.8572V33.4286H212.76V24.8572H204.188ZM180.788 24.8572V16.2857H172.217V24.8572H180.788ZM180.788 32.6572V41.2286H189.36V32.6572H180.788ZM172.988 32.6572V24.0857H164.417V32.6572H172.988ZM172.988 56.0572H164.417V64.6286H172.988V56.0572ZM180.788 56.0572H189.36V47.4857H180.788V56.0572ZM180.788 63.8572H172.217V72.4286H180.788V63.8572ZM219.788 63.8572V72.4286H228.36V63.8572H219.788ZM204.188 56.0572V64.6286H212.76V56.0572H204.188ZM188.588 56.0572H180.017V64.6286H188.588V56.0572ZM188.588 32.6572V24.0857H180.017V32.6572H188.588ZM196.388 32.6572H204.96V24.0857H196.388V32.6572ZM196.388 40.4572H187.817V49.0286H196.388V40.4572ZM204.188 40.4572H212.76V31.8857H204.188V40.4572ZM219.788 0.68573H204.188V17.8286H219.788V0.68573ZM195.617 9.25716V24.8572H212.76V9.25716H195.617ZM204.188 16.2857H180.788V33.4286H204.188V16.2857ZM172.217 24.8572V32.6572H189.36V24.8572H172.217ZM180.788 24.0857H172.988V41.2286H180.788V24.0857ZM164.417 32.6572V56.0572H181.56V32.6572H164.417ZM172.988 64.6286H180.788V47.4857H172.988V64.6286ZM172.217 56.0572V63.8572H189.36V56.0572H172.217ZM180.788 72.4286H219.788V55.2857H180.788V72.4286ZM228.36 63.8572V9.25716H211.217V63.8572H228.36ZM204.188 47.4857H188.588V64.6286H204.188V47.4857ZM197.16 56.0572V32.6572H180.017V56.0572H197.16ZM188.588 41.2286H196.388V24.0857H188.588V41.2286ZM187.817 32.6572V40.4572H204.96V32.6572H187.817ZM196.388 49.0286H204.188V31.8857H196.388V49.0286ZM195.617 40.4572V56.0572H212.76V40.4572H195.617ZM258.804 40.4572H250.232V49.0286H258.804V40.4572ZM274.404 40.4572V49.0286H282.975V40.4572H274.404ZM274.404 32.6572H282.975V24.0857H274.404V32.6572ZM266.604 32.6572H258.032V41.2286H266.604V32.6572ZM266.604 24.8572H275.175V16.2857H266.604V24.8572ZM235.404 24.8572V16.2857H226.832V24.8572H235.404ZM235.404 32.6572V41.2286H243.975V32.6572H235.404ZM227.604 32.6572V24.0857H219.032V32.6572H227.604ZM227.604 56.0572H219.032V64.6286H227.604V56.0572ZM235.404 56.0572H243.975V47.4857H235.404V56.0572ZM235.404 63.8572H226.832V72.4286H235.404V63.8572ZM266.604 63.8572V72.4286H275.175V63.8572H266.604ZM266.604 56.0572V47.4857H258.032V56.0572H266.604ZM274.404 56.0572V64.6286H282.975V56.0572H274.404ZM274.404 48.2572H282.975V39.6857H274.404V48.2572ZM258.804 48.2572V39.6857H250.232V48.2572H258.804ZM258.804 56.0572V64.6286H267.375V56.0572H258.804ZM243.204 56.0572H234.632V64.6286H243.204V56.0572ZM243.204 32.6572V24.0857H234.632V32.6572H243.204ZM258.804 32.6572H267.375V24.0857H258.804V32.6572ZM258.804 49.0286H274.404V31.8857H258.804V49.0286ZM282.975 40.4572V32.6572H265.832V40.4572H282.975ZM274.404 24.0857H266.604V41.2286H274.404V24.0857ZM275.175 32.6572V24.8572H258.032V32.6572H275.175ZM266.604 16.2857H235.404V33.4286H266.604V16.2857ZM226.832 24.8572V32.6572H243.975V24.8572H226.832ZM235.404 24.0857H227.604V41.2286H235.404V24.0857ZM219.032 32.6572V56.0572H236.175V32.6572H219.032ZM227.604 64.6286H235.404V47.4857H227.604V64.6286ZM226.832 56.0572V63.8572H243.975V56.0572H226.832ZM235.404 72.4286H266.604V55.2857H235.404V72.4286ZM275.175 63.8572V56.0572H258.032V63.8572H275.175ZM266.604 64.6286H274.404V47.4857H266.604V64.6286ZM282.975 56.0572V48.2572H265.832V56.0572H282.975ZM274.404 39.6857H258.804V56.8286H274.404V39.6857ZM250.232 48.2572V56.0572H267.375V48.2572H250.232ZM258.804 47.4857H243.204V64.6286H258.804V47.4857ZM251.775 56.0572V32.6572H234.632V56.0572H251.775ZM243.204 41.2286H258.804V24.0857H243.204V41.2286ZM250.232 32.6572V40.4572H267.375V32.6572H250.232ZM321.219 32.6572H312.648V41.2286H321.219V32.6572ZM321.219 24.8572H329.791V16.2857H321.219V24.8572ZM290.019 24.8572V16.2857H281.448V24.8572H290.019ZM290.019 32.6572V41.2286H298.591V32.6572H290.019ZM282.219 32.6572V24.0857H273.648V32.6572H282.219ZM282.219 56.0572H273.648V64.6286H282.219V56.0572ZM290.019 56.0572H298.591V47.4857H290.019V56.0572ZM290.019 63.8572H281.448V72.4286H290.019V63.8572ZM321.219 63.8572V72.4286H329.791V63.8572H321.219ZM321.219 56.0572V47.4857H312.648V56.0572H321.219ZM329.019 56.0572V64.6286H337.591V56.0572H329.019ZM329.019 32.6572H337.591V24.0857H329.019V32.6572ZM313.419 56.0572V64.6286H321.991V56.0572H313.419ZM297.819 56.0572H289.248V64.6286H297.819V56.0572ZM297.819 32.6572V24.0857H289.248V32.6572H297.819ZM313.419 32.6572H321.991V24.0857H313.419V32.6572ZM329.791 32.6572V24.8572H312.648V32.6572H329.791ZM321.219 16.2857H290.019V33.4286H321.219V16.2857ZM281.448 24.8572V32.6572H298.591V24.8572H281.448ZM290.019 24.0857H282.219V41.2286H290.019V24.0857ZM273.648 32.6572V56.0572H290.791V32.6572H273.648ZM282.219 64.6286H290.019V47.4857H282.219V64.6286ZM281.448 56.0572V63.8572H298.591V56.0572H281.448ZM290.019 72.4286H321.219V55.2857H290.019V72.4286ZM329.791 63.8572V56.0572H312.648V63.8572H329.791ZM321.219 64.6286H329.019V47.4857H321.219V64.6286ZM337.591 56.0572V32.6572H320.448V56.0572H337.591ZM329.019 24.0857H321.219V41.2286H329.019V24.0857ZM313.419 47.4857H297.819V64.6286H313.419V47.4857ZM306.391 56.0572V32.6572H289.248V56.0572H306.391ZM297.819 41.2286H313.419V24.0857H297.819V41.2286ZM304.848 32.6572V56.0572H321.991V32.6572H304.848ZM375.835 32.6572H367.263V41.2286H375.835V32.6572ZM375.835 24.8572H384.406V16.2857H375.835V24.8572ZM336.835 24.8572V16.2857H328.263V24.8572H336.835ZM336.835 63.8572H328.263V72.4286H336.835V63.8572ZM352.435 63.8572V72.4286H361.006V63.8572H352.435ZM352.435 40.4572V31.8857H343.863V40.4572H352.435ZM360.235 40.4572V49.0286H368.806V40.4572H360.235ZM360.235 32.6572V24.0857H351.663V32.6572H360.235ZM368.034 32.6572H376.606V24.0857H368.034V32.6572ZM368.034 40.4572H359.463V49.0286H368.034V40.4572ZM383.634 40.4572V49.0286H392.206V40.4572H383.634ZM383.634 32.6572H392.206V24.0857H383.634V32.6572ZM384.406 32.6572V24.8572H367.263V32.6572H384.406ZM375.835 16.2857H336.835V33.4286H375.835V16.2857ZM328.263 24.8572V63.8572H345.406V24.8572H328.263ZM336.835 72.4286H352.435V55.2857H336.835V72.4286ZM361.006 63.8572V40.4572H343.863V63.8572H361.006ZM352.435 49.0286H360.235V31.8857H352.435V49.0286ZM368.806 40.4572V32.6572H351.663V40.4572H368.806ZM360.235 41.2286H368.034V24.0857H360.235V41.2286ZM359.463 32.6572V40.4572H376.606V32.6572H359.463ZM368.034 49.0286H383.634V31.8857H368.034V49.0286ZM392.206 40.4572V32.6572H375.063V40.4572H392.206ZM383.634 24.0857H375.835V41.2286H383.634V24.0857ZM430.449 32.6572H421.878V41.2286H430.449V32.6572ZM430.449 24.8572H439.02V16.2857H430.449V24.8572ZM399.249 24.8572V16.2857H390.678V24.8572H399.249ZM399.249 32.6572V41.2286H407.821V32.6572H399.249ZM391.449 32.6572V24.0857H382.878V32.6572H391.449ZM391.449 56.0572H382.878V64.6286H391.449V56.0572ZM399.249 56.0572H407.821V47.4857H399.249V56.0572ZM399.249 63.8572H390.678V72.4286H399.249V63.8572ZM438.249 63.8572V72.4286H446.821V63.8572H438.249ZM438.249 56.0572H446.821V47.4857H438.249V56.0572ZM407.049 56.0572H398.478V64.6286H407.049V56.0572ZM407.049 48.2572V39.6857H398.478V48.2572H407.049ZM438.249 48.2572V56.8286H446.821V48.2572H438.249ZM438.249 32.6572H446.821V24.0857H438.249V32.6572ZM422.649 40.4572V49.0286H431.221V40.4572H422.649ZM407.049 40.4572H398.478V49.0286H407.049V40.4572ZM407.049 32.6572V24.0857H398.478V32.6572H407.049ZM422.649 32.6572H431.221V24.0857H422.649V32.6572ZM439.02 32.6572V24.8572H421.878V32.6572H439.02ZM430.449 16.2857H399.249V33.4286H430.449V16.2857ZM390.678 24.8572V32.6572H407.821V24.8572H390.678ZM399.249 24.0857H391.449V41.2286H399.249V24.0857ZM382.878 32.6572V56.0572H400.02V32.6572H382.878ZM391.449 64.6286H399.249V47.4857H391.449V64.6286ZM390.678 56.0572V63.8572H407.821V56.0572H390.678ZM399.249 72.4286H438.249V55.2857H399.249V72.4286ZM446.821 63.8572V56.0572H429.678V63.8572H446.821ZM438.249 47.4857H407.049V64.6286H438.249V47.4857ZM415.62 56.0572V48.2572H398.478V56.0572H415.62ZM407.049 56.8286H438.249V39.6857H407.049V56.8286ZM446.821 48.2572V32.6572H429.678V48.2572H446.821ZM438.249 24.0857H430.449V41.2286H438.249V24.0857ZM422.649 31.8857H407.049V49.0286H422.649V31.8857ZM415.62 40.4572V32.6572H398.478V40.4572H415.62ZM407.049 41.2286H422.649V24.0857H407.049V41.2286ZM414.078 32.6572V40.4572H431.221V32.6572H414.078ZM477.265 24.8572H468.693V33.4286H477.265V24.8572ZM492.864 24.8572V33.4286H501.436V24.8572H492.864ZM492.864 17.0572H501.436V8.48573H492.864V17.0572ZM485.064 17.0572H476.493V25.6286H485.064V17.0572ZM485.064 9.25716H493.636V0.68573H485.064V9.25716ZM453.864 9.25716V0.68573H445.293V9.25716H453.864ZM453.864 17.0572V25.6286H462.436V17.0572H453.864ZM446.065 17.0572V8.48573H437.493V17.0572H446.065ZM446.065 56.0572H437.493V64.6286H446.065V56.0572ZM453.864 56.0572H462.436V47.4857H453.864V56.0572ZM453.864 63.8572H445.293V72.4286H453.864V63.8572ZM485.064 63.8572V72.4286H493.636V63.8572H485.064ZM485.064 56.0572V47.4857H476.493V56.0572H485.064ZM492.864 56.0572V64.6286H501.436V56.0572H492.864ZM492.864 48.2572H501.436V39.6857H492.864V48.2572ZM477.265 48.2572V39.6857H468.693V48.2572H477.265ZM477.265 56.0572V64.6286H485.836V56.0572H477.265ZM461.665 56.0572H453.093V64.6286H461.665V56.0572ZM461.665 17.0572V8.48573H453.093V17.0572H461.665ZM477.265 17.0572H485.836V8.48573H477.265V17.0572ZM477.265 33.4286H492.864V16.2857H477.265V33.4286ZM501.436 24.8572V17.0572H484.293V24.8572H501.436ZM492.864 8.48573H485.064V25.6286H492.864V8.48573ZM493.636 17.0572V9.25716H476.493V17.0572H493.636ZM485.064 0.68573H453.864V17.8286H485.064V0.68573ZM445.293 9.25716V17.0572H462.436V9.25716H445.293ZM453.864 8.48573H446.065V25.6286H453.864V8.48573ZM437.493 17.0572V56.0572H454.636V17.0572H437.493ZM446.065 64.6286H453.864V47.4857H446.065V64.6286ZM445.293 56.0572V63.8572H462.436V56.0572H445.293ZM453.864 72.4286H485.064V55.2857H453.864V72.4286ZM493.636 63.8572V56.0572H476.493V63.8572H493.636ZM485.064 64.6286H492.864V47.4857H485.064V64.6286ZM501.436 56.0572V48.2572H484.293V56.0572H501.436ZM492.864 39.6857H477.265V56.8286H492.864V39.6857ZM468.693 48.2572V56.0572H485.836V48.2572H468.693ZM477.265 47.4857H461.665V64.6286H477.265V47.4857ZM470.236 56.0572V17.0572H453.093V56.0572H470.236ZM461.665 25.6286H477.265V8.48573H461.665V25.6286ZM468.693 17.0572V24.8572H485.836V17.0572H468.693ZM539.68 32.6572H531.109V41.2286H539.68V32.6572ZM539.68 24.8572H548.251V16.2857H539.68V24.8572ZM500.68 24.8572V16.2857H492.109V24.8572H500.68ZM500.68 63.8572H492.109V72.4286H500.68V63.8572ZM516.28 63.8572V72.4286H524.851V63.8572H516.28ZM516.28 40.4572V31.8857H507.708V40.4572H516.28ZM524.08 40.4572V49.0286H532.651V40.4572H524.08ZM524.08 32.6572V24.0857H515.508V32.6572H524.08ZM531.88 32.6572H540.451V24.0857H531.88V32.6572ZM531.88 40.4572H523.308V49.0286H531.88V40.4572ZM547.48 40.4572V49.0286H556.051V40.4572H547.48ZM547.48 32.6572H556.051V24.0857H547.48V32.6572ZM548.251 32.6572V24.8572H531.109V32.6572H548.251ZM539.68 16.2857H500.68V33.4286H539.68V16.2857ZM492.109 24.8572V63.8572H509.251V24.8572H492.109ZM500.68 72.4286H516.28V55.2857H500.68V72.4286ZM524.851 63.8572V40.4572H507.708V63.8572H524.851ZM516.28 49.0286H524.08V31.8857H516.28V49.0286ZM532.651 40.4572V32.6572H515.508V40.4572H532.651ZM524.08 41.2286H531.88V24.0857H524.08V41.2286ZM523.308 32.6572V40.4572H540.451V32.6572H523.308ZM531.88 49.0286H547.48V31.8857H531.88V49.0286ZM556.051 40.4572V32.6572H538.908V40.4572H556.051ZM547.48 24.0857H539.68V41.2286H547.48V24.0857ZM594.295 32.6572H585.724V41.2286H594.295V32.6572ZM594.295 24.8572H602.867V16.2857H594.295V24.8572ZM563.095 24.8572V16.2857H554.524V24.8572H563.095ZM563.095 32.6572H554.524V41.2286H563.095V32.6572ZM586.495 32.6572H595.067V24.0857H586.495V32.6572ZM586.495 40.4572V49.0286H595.067V40.4572H586.495ZM563.095 40.4572V31.8857H554.524V40.4572H563.095ZM563.095 48.2572V56.8286H571.667V48.2572H563.095ZM555.295 48.2572V39.6857H546.724V48.2572H555.295ZM555.295 56.0572H546.724V64.6286H555.295V56.0572ZM563.095 56.0572H571.667V47.4857H563.095V56.0572ZM563.095 63.8572H554.524V72.4286H563.095V63.8572ZM602.095 63.8572V72.4286H610.667V63.8572H602.095ZM602.095 32.6572H610.667V24.0857H602.095V32.6572ZM586.495 56.0572V64.6286H595.067V56.0572H586.495ZM570.895 56.0572H562.324V64.6286H570.895V56.0572ZM570.895 48.2572V39.6857H562.324V48.2572H570.895ZM586.495 48.2572H595.067V39.6857H586.495V48.2572ZM602.867 32.6572V24.8572H585.724V32.6572H602.867ZM594.295 16.2857H563.095V33.4286H594.295V16.2857ZM554.524 24.8572V32.6572H571.667V24.8572H554.524ZM563.095 41.2286H586.495V24.0857H563.095V41.2286ZM577.924 32.6572V40.4572H595.067V32.6572H577.924ZM586.495 31.8857H563.095V49.0286H586.495V31.8857ZM554.524 40.4572V48.2572H571.667V40.4572H554.524ZM563.095 39.6857H555.295V56.8286H563.095V39.6857ZM546.724 48.2572V56.0572H563.867V48.2572H546.724ZM555.295 64.6286H563.095V47.4857H555.295V64.6286ZM554.524 56.0572V63.8572H571.667V56.0572H554.524ZM563.095 72.4286H602.095V55.2857H563.095V72.4286ZM610.667 63.8572V32.6572H593.524V63.8572H610.667ZM602.095 24.0857H594.295V41.2286H602.095V24.0857ZM586.495 47.4857H570.895V64.6286H586.495V47.4857ZM579.467 56.0572V48.2572H562.324V56.0572H579.467ZM570.895 56.8286H586.495V39.6857H570.895V56.8286ZM577.924 48.2572V56.0572H595.067V48.2572H577.924ZM633.31 17.0572V8.48573H624.738V17.0572H633.31ZM648.911 17.0572V25.6286H657.482V17.0572H648.911ZM648.911 9.25716H657.482V0.68573H648.911V9.25716ZM625.511 9.25716V0.68573H616.939V9.25716H625.511ZM625.511 17.0572V25.6286H634.082V17.0572H625.511ZM617.71 17.0572V8.48573H609.138V17.0572H617.71ZM617.71 24.8572V33.4286H626.281V24.8572H617.71ZM609.911 24.8572V16.2857H601.339V24.8572H609.911ZM609.911 32.6572H601.339V41.2286H609.911V32.6572ZM617.71 32.6572H626.281V24.0857H617.71V32.6572ZM617.71 63.8572H609.138V72.4286H617.71V63.8572ZM633.31 63.8572V72.4286H641.881V63.8572H633.31ZM633.31 32.6572V24.0857H624.738V32.6572H633.31ZM648.911 32.6572V41.2286H657.482V32.6572H648.911ZM648.911 24.8572H657.482V16.2857H648.911V24.8572ZM633.31 24.8572H624.738V33.4286H633.31V24.8572ZM633.31 25.6286H648.911V8.48573H633.31V25.6286ZM657.482 17.0572V9.25716H640.339V17.0572H657.482ZM648.911 0.68573H625.511V17.8286H648.911V0.68573ZM616.939 9.25716V17.0572H634.082V9.25716H616.939ZM625.511 8.48573H617.71V25.6286H625.511V8.48573ZM609.138 17.0572V24.8572H626.281V17.0572H609.138ZM617.71 16.2857H609.911V33.4286H617.71V16.2857ZM601.339 24.8572V32.6572H618.482V24.8572H601.339ZM609.911 41.2286H617.71V24.0857H609.911V41.2286ZM609.138 32.6572V63.8572H626.281V32.6572H609.138ZM617.71 72.4286H633.31V55.2857H617.71V72.4286ZM641.881 63.8572V32.6572H624.738V63.8572H641.881ZM633.31 41.2286H648.911V24.0857H633.31V41.2286ZM657.482 32.6572V24.8572H640.339V32.6572H657.482ZM648.911 16.2857H633.31V33.4286H648.911V16.2857ZM641.881 24.8572V17.0572H624.738V24.8572H641.881ZM680.08 56.0572H671.508V64.6286H680.08V56.0572ZM680.08 32.6572V24.0857H671.508V32.6572H680.08ZM687.88 32.6572V41.2286H696.451V32.6572H687.88ZM687.88 24.8572H696.451V16.2857H687.88V24.8572ZM680.08 24.8572H671.508V33.4286H680.08V24.8572ZM680.08 9.25716H688.651V0.68573H680.08V9.25716ZM664.48 9.25716V0.68573H655.908V9.25716H664.48ZM664.48 24.8572V33.4286H673.051V24.8572H664.48ZM656.68 24.8572V16.2857H648.108V24.8572H656.68ZM656.68 32.6572H648.108V41.2286H656.68V32.6572ZM664.48 32.6572H673.051V24.0857H664.48V32.6572ZM664.48 56.0572H655.908V64.6286H664.48V56.0572ZM672.28 56.0572H680.851V47.4857H672.28V56.0572ZM672.28 63.8572H663.708V72.4286H672.28V63.8572ZM687.88 63.8572V72.4286H696.451V63.8572H687.88ZM687.88 56.0572H696.451V47.4857H687.88V56.0572ZM688.651 56.0572V32.6572H671.508V56.0572H688.651ZM680.08 41.2286H687.88V24.0857H680.08V41.2286ZM696.451 32.6572V24.8572H679.308V32.6572H696.451ZM687.88 16.2857H680.08V33.4286H687.88V16.2857ZM688.651 24.8572V9.25716H671.508V24.8572H688.651ZM680.08 0.68573H664.48V17.8286H680.08V0.68573ZM655.908 9.25716V24.8572H673.051V9.25716H655.908ZM664.48 16.2857H656.68V33.4286H664.48V16.2857ZM648.108 24.8572V32.6572H665.251V24.8572H648.108ZM656.68 41.2286H664.48V24.0857H656.68V41.2286ZM655.908 32.6572V56.0572H673.051V32.6572H655.908ZM664.48 64.6286H672.28V47.4857H664.48V64.6286ZM663.708 56.0572V63.8572H680.851V56.0572H663.708ZM672.28 72.4286H687.88V55.2857H672.28V72.4286ZM696.451 63.8572V56.0572H679.308V63.8572H696.451ZM687.88 47.4857H680.08V64.6286H687.88V47.4857Z" fill="#3D1010" fill-opacity="0.3"/>
<path d="M55.9428 7.54285H40.3428V23.1428H24.7428V7.54285H9.14282V62.1428H24.7428V30.9428H40.3428V62.1428H55.9428V7.54285ZM102.758 30.9428V23.1428H71.5582V30.9428H94.9582V38.7428H71.5582V46.5428H63.7582V54.3428H71.5582V62.1428H110.558V30.9428H102.758ZM94.9582 54.3428H79.3582V46.5428H94.9582V54.3428ZM157.374 30.9428V23.1428H118.374V62.1428H133.974V38.7428H141.774V30.9428H149.574V38.7428H165.174V30.9428H157.374ZM219.788 7.54285H204.188V23.1428H180.788V30.9428H172.988V54.3428H180.788V62.1428H219.788V7.54285ZM204.188 54.3428H188.588V30.9428H196.388V38.7428H204.188V54.3428ZM258.804 38.7428H274.404V30.9428H266.604V23.1428H235.404V30.9428H227.604V54.3428H235.404V62.1428H266.604V54.3428H274.404V46.5428H258.804V54.3428H243.204V30.9428H258.804V38.7428ZM321.219 30.9428V23.1428H290.019V30.9428H282.219V54.3428H290.019V62.1428H321.219V54.3428H329.019V30.9428H321.219ZM313.419 54.3428H297.819V30.9428H313.419V54.3428ZM375.834 30.9428V23.1428H336.834V62.1428H352.434V38.7428H360.234V30.9428H368.034V38.7428H383.634V30.9428H375.834ZM430.449 30.9428V23.1428H399.249V30.9428H391.449V54.3428H399.249V62.1428H438.249V54.3428H407.049V46.5428H438.249V30.9428H430.449ZM422.649 38.7428H407.049V30.9428H422.649V38.7428ZM477.264 23.1428H492.864V15.3428H485.064V7.54285H453.864V15.3428H446.064V54.3428H453.864V62.1428H485.064V54.3428H492.864V46.5428H477.264V54.3428H461.664V15.3428H477.264V23.1428ZM539.68 30.9428V23.1428H500.68V62.1428H516.28V38.7428H524.08V30.9428H531.88V38.7428H547.48V30.9428H539.68ZM594.295 30.9428V23.1428H563.095V30.9428H586.495V38.7428H563.095V46.5428H555.295V54.3428H563.095V62.1428H602.095V30.9428H594.295ZM586.495 54.3428H570.895V46.5428H586.495V54.3428ZM633.311 15.3428H648.911V7.54285H625.511V15.3428H617.711V23.1428H609.911V30.9428H617.711V62.1428H633.311V30.9428H648.911V23.1428H633.311V15.3428ZM680.08 54.3428V30.9428H687.88V23.1428H680.08V7.54285H664.48V23.1428H656.68V30.9428H664.48V54.3428H672.28V62.1428H687.88V54.3428H680.08Z" fill="url(#paint1_linear)"/>
<defs>
<linearGradient id="paint0_linear" x1="352.428" y1="-14.1428" x2="352.428" y2="79.2857" gradientUnits="userSpaceOnUse">
<stop offset="0.0001" stop-color="#651212"/>
<stop offset="0.58464" stop-color="#651212"/>
<stop offset="0.585677" stop-color="#4E0D0D"/>
<stop offset="0.833025" stop-color="#4E0D0D"/>
<stop offset="0.836654" stop-color="#370A0A"/>
</linearGradient>
<linearGradient id="paint1_linear" x1="0.571398" y1="-0.857153" x2="0.571398" y2="71.1428" gradientUnits="userSpaceOnUse">
<stop stop-color="#FF1313"/>
<stop offset="0.549693" stop-color="#FF1313"/>
<stop offset="0.55072" stop-color="#BB1313"/>
<stop offset="1" stop-color="#BB1313"/>
</linearGradient>
</defs>
</svg>
