<svg width="9" height="9" viewBox="0 0 9 9" fill="none" xmlns="http://www.w3.org/2000/svg">
<path d="M2 2H3V3H2V2Z" fill="#600707"/>
<path d="M2 3H3V4H2V3Z" fill="#600707"/>
<path d="M3 3H4V4H3V3Z" fill="#600707"/>
<path d="M3 4H4V5H3V4Z" fill="#600707"/>
<path d="M5 3H6V4H5V3Z" fill="#600707"/>
<path d="M5 4H6V5H5V4Z" fill="#600707"/>
<path d="M6 2H7V3H6V2Z" fill="#600707"/>
<path d="M6 3H7V4H6V3Z" fill="#600707"/>
<path d="M2 1H3V2H2V1Z" fill="#FF1313"/>
<path d="M1 2H2V3H1V2Z" fill="#FF1313"/>
<path d="M3 1H4V2H3V1Z" fill="#FF1313"/>
<path d="M3 2H4V3H3V2Z" fill="#FF1313"/>
<path d="M5 1H6V2H5V1Z" fill="#FF1313"/>
<path d="M5 2H6V3H5V2Z" fill="#FF1313"/>
<path d="M4 2H5V3H4V2Z" fill="#FF1313"/>
<path d="M4 3H5V4H4V3Z" fill="#FF1313"/>
<path d="M6 1H7V2H6V1Z" fill="#FF1313"/>
<path d="M7 2H8V3H7V2Z" fill="#FF1313"/>
<path d="M2 4H3V5H2V4Z" fill="#DF1313"/>
<path d="M1 3H2V4H1V3Z" fill="#DF1313"/>
<path d="M3 5H4V6H3V5Z" fill="#DF1313"/>
<path d="M5 5H6V6H5V5Z" fill="#DF1313"/>
<path d="M4 4H5V5H4V4Z" fill="#DF1313"/>
<path d="M4 5H5V6H4V5Z" fill="#DF1313"/>
<path d="M4 6H5V7H4V6Z" fill="#DF1313"/>
<path d="M6 4H7V5H6V4Z" fill="#DF1313"/>
<path d="M7 3H8V4H7V3Z" fill="#DF1313"/>
<path d="M2 5H3V6H2V5Z" fill="#BB1313"/>
<path d="M1 4H2V5H1V4Z" fill="#BB1313"/>
<path d="M3 6H4V7H3V6Z" fill="#BB1313"/>
<path d="M5 6H6V7H5V6Z" fill="#BB1313"/>
<path d="M4 7H5V8H4V7Z" fill="#BB1313"/>
<path d="M6 5H7V6H6V5Z" fill="#BB1313"/>
<path d="M7 4H8V5H7V4Z" fill="#BB1313"/>
<path d="M2 0H3V1H2V0Z" fill="#741D1D"/>
<path d="M1 1H2V2H1V1Z" fill="#741D1D"/>
<path d="M0 2H1V3H0V2Z" fill="#741D1D"/>
<path d="M3 0H4V1H3V0Z" fill="#741D1D"/>
<path d="M5 0H6V1H5V0Z" fill="#741D1D"/>
<path d="M4 1H5V2H4V1Z" fill="#741D1D"/>
<path d="M6 0H7V1H6V0Z" fill="#741D1D"/>
<path d="M7 1H8V2H7V1Z" fill="#741D1D"/>
<path d="M8 2H9V3H8V2Z" fill="#741D1D"/>
<path d="M0 3H1V4H0V3Z" fill="#591717"/>
<path d="M8 3H9V4H8V3Z" fill="#591717"/>
<path d="M2 6H3V7H2V6Z" fill="#3D1010"/>
<path d="M1 5H2V6H1V5Z" fill="#3D1010"/>
<path d="M0 4H1V5H0V4Z" fill="#3D1010"/>
<path d="M3 7H4V8H3V7Z" fill="#3D1010"/>
<path d="M5 7H6V8H5V7Z" fill="#3D1010"/>
<path d="M4 8H5V9H4V8Z" fill="#3D1010"/>
<path d="M8 4H9V5H8V4Z" fill="#3D1010"/>
<path d="M6 6H7V7H6V6Z" fill="#3D1010"/>
<path d="M7 5H8V6H7V5Z" fill="#3D1010"/>
</svg>
