<svg width="450" height="450" viewBox="0 0 450 450" fill="none" xmlns="http://www.w3.org/2000/svg">
<path d="M100 100H150V150H100V100Z" fill="#600707"/>
<path d="M100 150H150V200H100V150Z" fill="#600707"/>
<path d="M150 150H200V200H150V150Z" fill="#600707"/>
<path d="M150 200H200V250H150V200Z" fill="#600707"/>
<path d="M250 150H300V200H250V150Z" fill="#600707"/>
<path d="M250 200H300V250H250V200Z" fill="#600707"/>
<path d="M300 100H350V150H300V100Z" fill="#600707"/>
<path d="M300 150H350V200H300V150Z" fill="#600707"/>
<path d="M100 50H150V100H100V50Z" fill="#FF1313"/>
<path d="M50 100H100V150H50V100Z" fill="#FF1313"/>
<path d="M150 50H200V100H150V50Z" fill="#FF1313"/>
<path d="M150 100H200V150H150V100Z" fill="#FF1313"/>
<path d="M250 50H300V100H250V50Z" fill="#FF1313"/>
<path d="M250 100H300V150H250V100Z" fill="#FF1313"/>
<path d="M200 100H250V150H200V100Z" fill="#FF1313"/>
<path d="M200 150H250V200H200V150Z" fill="#FF1313"/>
<path d="M300 50H350V100H300V50Z" fill="#FF1313"/>
<path d="M350 100H400V150H350V100Z" fill="#FF1313"/>
<path d="M100 200H150V250H100V200Z" fill="#DF1313"/>
<path d="M50 150H100V200H50V150Z" fill="#DF1313"/>
<path d="M150 250H200V300H150V250Z" fill="#DF1313"/>
<path d="M250 250H300V300H250V250Z" fill="#DF1313"/>
<path d="M200 200H250V250H200V200Z" fill="#DF1313"/>
<path d="M200 250H250V300H200V250Z" fill="#DF1313"/>
<path d="M200 300H250V350H200V300Z" fill="#DF1313"/>
<path d="M300 200H350V250H300V200Z" fill="#DF1313"/>
<path d="M350 150H400V200H350V150Z" fill="#DF1313"/>
<path d="M100 250H150V300H100V250Z" fill="#BB1313"/>
<path d="M50 200H100V250H50V200Z" fill="#BB1313"/>
<path d="M150 300H200V350H150V300Z" fill="#BB1313"/>
<path d="M250 300H300V350H250V300Z" fill="#BB1313"/>
<path d="M200 350H250V400H200V350Z" fill="#BB1313"/>
<path d="M300 250H350V300H300V250Z" fill="#BB1313"/>
<path d="M350 200H400V250H350V200Z" fill="#BB1313"/>
<path d="M100 0H150V50H100V0Z" fill="#741D1D"/>
<path d="M50 50H100V100H50V50Z" fill="#741D1D"/>
<path d="M0 100H50V150H0V100Z" fill="#741D1D"/>
<path d="M150 0H200V50H150V0Z" fill="#741D1D"/>
<path d="M250 0H300V50H250V0Z" fill="#741D1D"/>
<path d="M200 50H250V100H200V50Z" fill="#741D1D"/>
<path d="M300 0H350V50H300V0Z" fill="#741D1D"/>
<path d="M350 50H400V100H350V50Z" fill="#741D1D"/>
<path d="M400 100H450V150H400V100Z" fill="#741D1D"/>
<path d="M0 150H50V200H0V150Z" fill="#591717"/>
<path d="M400 150H450V200H400V150Z" fill="#591717"/>
<path d="M100 300H150V350H100V300Z" fill="#3D1010"/>
<path d="M50 250H100V300H50V250Z" fill="#3D1010"/>
<path d="M0 200H50V250H0V200Z" fill="#3D1010"/>
<path d="M150 350H200V400H150V350Z" fill="#3D1010"/>
<path d="M250 350H300V400H250V350Z" fill="#3D1010"/>
<path d="M200 400H250V450H200V400Z" fill="#3D1010"/>
<path d="M400 200H450V250H400V200Z" fill="#3D1010"/>
<path d="M300 300H350V350H300V300Z" fill="#3D1010"/>
<path d="M350 250H400V300H350V250Z" fill="#3D1010"/>
</svg>
